mtllib backpack.mtl

o janta3_janta3_0
usemtl janta3
v 0.029931 1.045985 -3.959326
v 0.031937 0.646941 -4.123601
v -0.168576 1.042464 -3.79417
v -0.375704 1.010309 -3.615542
v -0.444274 0.146785 -3.896936
v -0.841799 0.47561 -3.384922
v -0.903798 0.053405 -3.484336
v -0.448021 -0.243961 -3.991998
v -0.921787 -0.327101 -3.563559
v -0.916125 -0.474315 -3.588761
v -0.440902 -0.394361 -4.018462
v 0.058843 -0.283133 -4.413025
v 0.080367 -0.650526 -4.463799
v -0.414673 -0.776407 -4.076049
v 0.100051 -0.878352 -4.411407
v 0.03923 0.238324 -4.281597
v 0.050474 -0.136451 -4.385534
v -0.586497 0.960514 -3.440849
v -0.772347 0.888666 -3.28106
v -0.886481 -0.840115 -3.6464
v -0.78776 -1.052443 -3.660829
v -0.354346 -0.992375 -4.054785
v -0.763373 -1.104608 -3.550905
v -0.278657 -1.037388 -3.975698
v 0.059697 -1.084764 -3.586469
v 0.524928 -0.953053 -4.019351
v 0.546441 -0.922349 -3.876767
v 0.139508 -1.043923 -3.482593
v 0.534812 -0.897615 -3.753439
v 0.160865 -0.992265 -3.445349
v -0.32513 -1.093255 -3.139918
v -0.452747 -1.144765 -3.192799
v 0.214302 -0.912896 -4.377456
v -0.452747 -1.144765 -3.192799
v -0.485481 -0.96006 -3.084275
v -0.319934 -0.980963 -3.029144
v -0.256808 -0.92542 -3.033648
v -0.210083 -1.043682 -3.123686
v -0.763373 -1.104608 -3.550905
v -0.860181 -0.839402 -3.499497
v -0.78776 -1.052443 -3.660829
v -0.886481 -0.840115 -3.6464
v -0.894613 -0.545966 -3.459815
v -0.916125 -0.474315 -3.588761
v -0.888367 -0.326041 -3.408154
v -0.921787 -0.327101 -3.563559
v -0.857264 -0.091993 -3.347389
v -0.903798 0.053405 -3.484336
v -0.811708 0.467186 -3.253616
v -0.841799 0.47561 -3.384922
v -0.772347 0.888666 -3.28106
v -0.772347 0.888666 -3.28106
v -0.456437 0.850972 -2.883577
v -0.437088 0.383918 -2.864617
v -0.455086 -0.160745 -2.890993
v -0.400208 -0.140559 -2.87304
v -0.310775 -0.295409 -2.850321
v -0.350868 -0.12102 -2.857296
v 0.202832 -0.238452 -3.220869
v -0.39995 0.377102 -2.84023
v -0.009623 0.976622 -3.190341
v -0.418257 0.830569 -2.865601
v -0.448637 -0.424264 -2.909684
v -0.318102 -0.595849 -2.929796
v -0.45788 -0.65001 -2.966242
v 0.393765 0.989798 -3.552106
v 0.517094 0.556925 -3.615523
v 0.605694 0.066552 -3.665999
v 0.645245 -0.107943 -3.658566
v 0.602993 0.057356 -3.726335
v 0.596212 0.045404 -3.779788
v 0.496321 0.567634 -3.656695
v 0.636225 -0.211533 -3.826854
v 0.636835 -0.408595 -3.737125
v 0.633478 -0.436006 -3.888904
v 0.627426 -0.795196 -3.830066
v 0.592884 -0.748603 -3.995953
v 0.546441 -0.922349 -3.876767
v 0.524928 -0.953053 -4.019351
v 0.214302 -0.912896 -4.377456
v 0.218185 -0.627945 -4.411175
v 0.080367 -0.650526 -4.463799
v 0.058843 -0.283133 -4.413025
v 0.195662 -0.332174 -4.381562
v 0.050474 -0.136451 -4.385534
v 0.195953 -0.113417 -4.324866
v 0.03923 0.238324 -4.281597
v 0.197282 0.114792 -4.23893
v 0.031937 0.646941 -4.123601
v 0.156764 0.657093 -4.072387
v 0.029931 1.045985 -3.959326
v 0.100051 -0.878352 -4.411407
v 0.379321 1.012558 -3.585242
v 0.029931 1.045985 -3.959326
v -0.772347 0.888666 -3.28106
v -0.456437 0.850972 -2.883577
v -0.586497 0.960514 -3.440849
v -0.034728 0.993061 -3.216223
v -0.375704 1.010309 -3.615542
v -0.168576 1.042464 -3.79417
v 0.379321 1.012558 -3.585242
v 0.029931 1.045985 -3.959326
v -0.318102 -0.595849 -2.929796
v -0.255976 -0.55801 -2.942956
v 0.202832 -0.238452 -3.220869
v -0.175358 -0.297458 -2.936474
v -0.310775 -0.295409 -2.850321
v 0.60177 -0.757062 -3.759513
v 0.636835 -0.408595 -3.737125
v 0.606933 -0.388803 -3.672482
v 0.645245 -0.107943 -3.658566
v 0.543552 -0.156487 -3.54426
v 0.202832 -0.238452 -3.220869
v -0.175358 -0.297458 -2.936474
v -0.310775 -0.295409 -2.850321
v 0.543552 -0.156487 -3.54426
v 0.645245 -0.107943 -3.658566
v 0.202832 -0.238452 -3.220869
v -0.475964 0.886554 -3.29695
v -0.472665 1.110261 -3.336583
v -0.372118 0.922021 -3.284889
v -0.376483 1.132003 -3.305337
v -0.322164 1.226836 -3.504236
v -0.255093 1.203873 -3.430228
v -0.116124 1.180517 -3.639487
v -0.098189 1.187161 -3.538147
v -0.026853 0.973862 -3.67837
v -0.030486 0.989599 -3.571246
v -0.860181 -0.839402 -3.499497
v -0.485481 -0.96006 -3.084275
v -0.894613 -0.545966 -3.459815
v -0.45788 -0.65001 -2.966242
v -0.888367 -0.326041 -3.408154
v -0.448637 -0.424264 -2.909684
v -0.697233 -0.154118 -3.099538
v -0.455086 -0.160745 -2.890993
v -0.857264 -0.091993 -3.347389
v 0.218185 -0.627945 -4.411175
v 0.592884 -0.748603 -3.995953
v 0.195662 -0.332174 -4.381562
v 0.633478 -0.436006 -3.888904
v 0.195953 -0.113417 -4.324866
v 0.636225 -0.211533 -3.826854
v 0.408949 0.062451 -4.033259
v 0.596212 0.045404 -3.779788
v 0.197282 0.114792 -4.23893
v 0.596212 0.045404 -3.779788
v 0.408949 0.062451 -4.033259
v 0.530223 -0.046957 -3.881509
v 0.399246 -0.035695 -4.045047
v 0.264145 -0.000298 -4.187659
v 0.197282 0.114792 -4.23893
v -0.455086 -0.160745 -2.890993
v -0.487852 -0.218483 -2.942018
v -0.697233 -0.154118 -3.099538
v -0.667251 -0.206899 -3.136938
v -0.825414 -0.160804 -3.325676
v -0.857264 -0.091993 -3.347389
v -0.475964 0.886554 -3.29695
v -0.372118 0.922021 -3.284889
v -0.472665 1.110261 -3.336583
v -0.376483 1.132003 -3.305337
v -0.322164 1.226836 -3.504236
v -0.255093 1.203873 -3.430228
v -0.116124 1.180517 -3.639487
v -0.098189 1.187161 -3.538147
v -0.026853 0.973862 -3.67837
v -0.030486 0.989599 -3.571246
v -0.586497 0.960514 -3.440849
v -0.772347 0.888666 -3.28106
v -0.711646 0.721311 -3.644361
v -0.897496 0.650563 -3.484317
v -0.774221 0.288662 -3.818726
v -0.960071 0.216814 -3.658937
v -0.774221 -0.226299 -3.938167
v -0.960071 -0.298147 -3.778378
v -0.685417 -0.73357 -3.950784
v -0.871267 -0.805418 -3.790995
v -0.562141 -0.94392 -3.853758
v -0.747991 -1.015768 -3.693969
v -0.168576 1.042464 -3.79417
v -0.293726 0.804361 -3.997427
v 0.029931 1.045985 -3.959326
v -0.095219 0.807882 -4.162584
v -0.3563 0.370612 -4.172048
v -0.157793 0.374132 -4.337204
v -0.3563 -0.144349 -4.291489
v -0.157793 -0.140829 -4.456645
v -0.267871 -0.651522 -4.304526
v -0.06899 -0.648099 -4.469262
v -0.14422 -0.86197 -4.207079
v 0.054287 -0.858449 -4.372236
v -0.586497 0.960514 -3.440849
v -0.772347 0.888666 -3.28106
v -0.711646 0.721311 -3.644361
v -0.897496 0.650563 -3.484317
v -0.774221 0.288662 -3.818726
v -0.960071 0.216814 -3.658937
v -0.774221 -0.226299 -3.938167
v -0.960071 -0.298147 -3.778378
v -0.685417 -0.73357 -3.950784
v -0.871267 -0.805418 -3.790995
v -0.562141 -0.94392 -3.853758
v -0.747991 -1.015768 -3.693969
v -0.168576 1.042464 -3.79417
v -0.293726 0.804361 -3.997427
v 0.029931 1.045985 -3.959326
v -0.095219 0.807882 -4.162584
v -0.3563 0.370612 -4.172048
v -0.157793 0.374132 -4.337204
v -0.3563 -0.144349 -4.291489
v -0.157793 -0.140829 -4.456645
v -0.267871 -0.651522 -4.304526
v -0.06899 -0.648099 -4.469262
v -0.14422 -0.86197 -4.207079
v 0.054287 -0.858449 -4.372236
v 0.602993 0.057356 -3.726335
v 0.605694 0.066552 -3.665999
v 0.496321 0.567634 -3.656695
v 0.517094 0.556925 -3.615523
v 0.393765 0.989798 -3.552106
v 0.379321 1.012558 -3.585242
v -0.034728 0.993061 -3.216223
v -0.009623 0.976622 -3.190341
v -0.400208 -0.140559 -2.87304
v -0.437088 0.383918 -2.864617
v -0.350868 -0.12102 -2.857296
v -0.39995 0.377102 -2.84023
v -0.418257 0.830569 -2.865601
v -0.456437 0.850972 -2.883577
v -0.034728 0.993061 -3.216223
v -0.009623 0.976622 -3.190341
v 0.071205 1.00807 -3.265936
v 0.070456 1.001663 -3.268309
v 0.061838 1.013809 -3.275685
v 0.06163 1.007509 -3.278515
v 0.00025 0.995815 -3.228098
v 0.009617 0.990075 -3.218349
v 0.001374 1.002124 -3.225305
v 0.010741 0.996384 -3.215556
v 0.071205 1.00807 -3.265936
v 0.061377 1.003845 -3.252721
v 0.070456 1.001663 -3.268309
v 0.060795 0.997642 -3.255972
v 0.009617 0.990075 -3.218349
v 0.010741 0.996384 -3.215556
v 0.061838 1.013809 -3.275685
v 0.047305 1.013257 -3.268305
v 0.071205 1.00807 -3.265936
v 0.061377 1.003845 -3.252721
v 0.010741 0.996384 -3.215556
v 0.001374 1.002124 -3.225305
v 0.06163 1.007509 -3.278515
v 0.046181 1.006948 -3.271098
v 0.061838 1.013809 -3.275685
v 0.047305 1.013257 -3.268305
v 0.001374 1.002124 -3.225305
v 0.00025 0.995815 -3.228098
v 0.019902 0.985467 -3.218479
v 0.018778 0.979157 -3.221272
v 0.001333 0.99715 -3.238855
v 0.000209 0.991941 -3.241393
v -0.026775 0.984523 -3.21441
v -0.013286 0.97661 -3.20029
v -0.02511 0.990939 -3.212075
v -0.012162 0.982919 -3.197497
v 0.019902 0.985467 -3.218479
v 0.011656 0.983166 -3.208558
v 0.018778 0.979157 -3.221272
v 0.010532 0.976856 -3.211351
v 0.010532 0.976856 -3.211351
v 0.011656 0.983166 -3.208558
v -0.013286 0.97661 -3.20029
v -0.012162 0.982919 -3.197497
v 0.001333 0.99715 -3.238855
v -0.010284 0.996827 -3.232464
v 0.019902 0.985467 -3.218479
v 0.011656 0.983166 -3.208558
v -0.012162 0.982919 -3.197497
v -0.02511 0.990939 -3.212075
v 0.000209 0.991941 -3.241393
v -0.011409 0.990518 -3.235257
v 0.001333 0.99715 -3.238855
v -0.010284 0.996827 -3.232464
v -0.010284 0.996827 -3.232464
v -0.011409 0.990518 -3.235257
v -0.02511 0.990939 -3.212075
v -0.026775 0.984523 -3.21441
v 0.01249 0.999612 -3.219474
v 0.012782 0.989521 -3.225959
v 0.007245 1.003178 -3.224851
v 0.007537 0.993087 -3.231337
v -0.020988 0.988765 -3.207704
v -0.015742 0.985199 -3.202326
v -0.016408 0.999812 -3.205337
v -0.011704 0.996139 -3.199502
v -0.015742 0.985199 -3.202326
v 0.012782 0.989521 -3.225959
v -0.011704 0.996139 -3.199502
v 0.01249 0.999612 -3.219474
v -0.011704 0.996139 -3.199502
v 0.01249 0.999612 -3.219474
v -0.016408 0.999812 -3.205337
v 0.007245 1.003178 -3.224851
v -0.016408 0.999812 -3.205337
v 0.007245 1.003178 -3.224851
v -0.020988 0.988765 -3.207704
v 0.007537 0.993087 -3.231337
v 0.070456 1.001663 -3.268309
v 0.060795 0.997642 -3.255972
v 0.06163 1.007509 -3.278515
v 0.046181 1.006948 -3.271098
v 0.009617 0.990075 -3.218349
v 0.00025 0.995815 -3.228098
v -0.111601 0.977941 -3.13104
v -0.102609 0.972299 -3.121712
v -0.112726 0.971632 -3.133833
v -0.103358 0.965892 -3.124084
v -0.042727 0.979982 -3.174833
v -0.042144 0.986185 -3.171582
v -0.052261 0.985518 -3.183704
v -0.051137 0.991827 -3.180911
v -0.111601 0.977941 -3.13104
v -0.112726 0.971632 -3.133833
v -0.102315 0.98206 -3.143798
v -0.102897 0.975856 -3.147048
v -0.052261 0.985518 -3.183704
v -0.051137 0.991827 -3.180911
v -0.102609 0.972299 -3.121712
v -0.087701 0.972753 -3.128671
v -0.111601 0.977941 -3.13104
v -0.102315 0.98206 -3.143798
v -0.051137 0.991827 -3.180911
v -0.042144 0.986185 -3.171582
v -0.103358 0.965892 -3.124084
v -0.088284 0.96655 -3.131922
v -0.102609 0.972299 -3.121712
v -0.087701 0.972753 -3.128671
v -0.042144 0.986185 -3.171582
v -0.042727 0.979982 -3.174833
v -0.063295 0.98592 -3.185436
v -0.063878 0.979716 -3.188686
v -0.044186 0.973242 -3.165772
v -0.04531 0.966933 -3.168566
v -0.018325 0.976551 -3.195038
v -0.031814 0.985565 -3.208902
v -0.017742 0.982755 -3.191787
v -0.031231 0.991768 -3.205652
v -0.063295 0.98592 -3.185436
v -0.05505 0.989321 -3.195101
v -0.063878 0.979716 -3.188686
v -0.055632 0.983118 -3.198352
v -0.055632 0.983118 -3.198352
v -0.05505 0.989321 -3.195101
v -0.031814 0.985565 -3.208902
v -0.031231 0.991768 -3.205652
v -0.044186 0.973242 -3.165772
v -0.032568 0.974665 -3.171908
v -0.063295 0.98592 -3.185436
v -0.05505 0.989321 -3.195101
v -0.031231 0.991768 -3.205652
v -0.017742 0.982755 -3.191787
v -0.04531 0.966933 -3.168566
v -0.033692 0.969456 -3.174445
v -0.044186 0.973242 -3.165772
v -0.032568 0.974665 -3.171908
v -0.032568 0.974665 -3.171908
v -0.033692 0.969456 -3.174445
v -0.017742 0.982755 -3.191787
v -0.018325 0.976551 -3.195038
v -0.052137 0.992806 -3.175131
v -0.056009 0.980969 -3.179089
v -0.046891 0.989239 -3.169753
v -0.051305 0.978397 -3.172998
v -0.021864 0.984928 -3.196158
v -0.02711 0.988494 -3.201536
v -0.023239 0.994807 -3.188757
v -0.028484 0.998373 -3.194135
v -0.02711 0.988494 -3.201536
v -0.056009 0.980969 -3.179089
v -0.028484 0.998373 -3.194135
v -0.052137 0.992806 -3.175131
v -0.028484 0.998373 -3.194135
v -0.052137 0.992806 -3.175131
v -0.023239 0.994807 -3.188757
v -0.046891 0.989239 -3.169753
v -0.023239 0.994807 -3.188757
v -0.046891 0.989239 -3.169753
v -0.021864 0.984928 -3.196158
v -0.051305 0.978397 -3.172998
v -0.112726 0.971632 -3.133833
v -0.102897 0.975856 -3.147048
v -0.103358 0.965892 -3.124084
v -0.088284 0.96655 -3.131922
v -0.052261 0.985518 -3.183704
v -0.042727 0.979982 -3.174833
v -0.667251 -0.206899 -3.136938
v -0.825414 -0.160804 -3.325676
v -0.487852 -0.218483 -2.942018
v -0.455086 -0.160745 -2.890993
v -0.857264 -0.091993 -3.347389
v -0.487852 -0.218483 -2.942018
v -0.825414 -0.160804 -3.325676
v 0.530223 -0.046957 -3.881509
v 0.399246 -0.035695 -4.045047
v 0.264145 -0.000298 -4.187659
v 0.264145 -0.000298 -4.187659
v 0.530223 -0.046957 -3.881509
v 0.197282 0.114792 -4.23893
v 0.596212 0.045404 -3.779788
vt 0.6324 0.903673
vt 0.617628 0.82383
vt 0.679647 0.904528
vt 0.729458 0.902574
vt 0.721767 0.736661
vt 0.833596 0.813819
vt 0.838358 0.731411
vt 0.718348 0.662311
vt 0.838236 0.658404
vt 0.836893 0.630447
vt 0.717005 0.633987
vt 0.597484 0.641679
vt 0.596141 0.571724
vt 0.713709 0.563789
vt 0.604931 0.528506
vt 0.605297 0.742155
vt 0.598705 0.669514
vt 0.779757 0.899889
vt 0.826271 0.894639
vt 0.831765 0.560614
vt 0.818946 0.518251
vt 0.711633 0.523501
vt 0.829323 0.497496
vt 0.710657 0.50238
vt 0.706994 0.412891
vt 0.588694 0.418507
vt 0.601513 0.393968
vt 0.705895 0.388841
vt 0.616895 0.376144
vt 0.705407 0.377243
vt 0.808447 0.384568
vt 0.823219 0.407398
vt 0.592723 0.50885
vt 0.835306 0.400561
vt 0.841898 0.35954
vt 0.81272 0.355145
vt 0.80161 0.346233
vt 0.789768 0.369429
vt 0.930044 0.425344
vt 0.950188 0.369551
vt 0.956414 0.426565
vt 0.978267 0.38176
vt 0.965204 0.312416
vt 0.994993 0.306678
vt 0.967402 0.267732
vt 0.998655 0.27579
vt 0.96496 0.218776
vt 0.999998 0.196069
vt 0.966669 0.103772
vt 0.994016 0.106702
vt 0.983883 0.019045
vt 0.983883 0.019045
vt 0.879867 0.00586
vt 0.855205 0.099255
vt 0.844828 0.208765
vt 0.833718 0.20376
vt 0.815772 0.232938
vt 0.823097 0.199853
vt 0.702843 0.234281
vt 0.820655 0.101941
vt 0.699303 0
vt 0.806494 0.012697
vt 0.840189 0.257844
vt 0.815039 0.287632
vt 0.840067 0.300085
vt 0.592723 0.015505
vt 0.58088 0.105115
vt 0.581003 0.203149
vt 0.58906 0.236234
vt 0.56916 0.207545
vt 0.559393 0.212672
vt 0.546086 0.10304
vt 0.565131 0.26175
vt 0.590891 0.291295
vt 0.565742 0.303992
vt 0.593333 0.359907
vt 0.564033 0.363569
vt 0.596141 0.38823
vt 0.570259 0.403613
vt 0.477352 0.428152
vt 0.457086 0.374068
vt 0.430105 0.386643
vt 0.412403 0.313514
vt 0.441948 0.318031
vt 0.407153 0.282993
vt 0.438163 0.273715
vt 0.404346 0.203272
vt 0.439872 0.225003
vt 0.407764 0.113783
vt 0.435111 0.110121
vt 0.415699 0.025638
vt 0.452081 0.429617
vt 0.52057 0.010011
vt 0.415699 0.025638
vt 0.826271 0.894639
vt 0.83909 0.989377
vt 0.779757 0.899889
vt 0.733975 0.999876
vt 0.729458 0.902574
vt 0.679647 0.904528
vt 0.628616 0.999876
vt 0.6324 0.903673
vt 0.815039 0.287632
vt 0.803563 0.281284
vt 0.702843 0.234281
vt 0.788181 0.236723
vt 0.815772 0.232938
vt 0.604687 0.351483
vt 0.590891 0.291295
vt 0.602367 0.284702
vt 0.58906 0.236234
vt 0.617018 0.239165
vt 0.702843 0.234281
vt 0.788181 0.236723
vt 0.815772 0.232938
vt 0.617018 0.239165
vt 0.58906 0.236234
vt 0.702843 0.234281
vt 0.508484 0.620192
vt 0.473446 0.687216
vt 0.528262 0.660968
vt 0.500915 0.708093
vt 0.458185 0.770112
vt 0.492247 0.769868
vt 0.474544 0.851787
vt 0.502868 0.832376
vt 0.507019 0.920033
vt 0.528262 0.880721
vt 0.950188 0.369551
vt 0.841898 0.35954
vt 0.965204 0.312416
vt 0.840067 0.300085
vt 0.967402 0.267732
vt 0.840189 0.257844
vt 0.905993 0.218532
vt 0.844828 0.208765
vt 0.96496 0.218776
vt 0.457086 0.374068
vt 0.564033 0.363569
vt 0.441948 0.318031
vt 0.565742 0.303992
vt 0.438163 0.273715
vt 0.565131 0.26175
vt 0.498839 0.223538
vt 0.559393 0.212672
vt 0.439872 0.225003
vt 0.559393 0.212672
vt 0.498839 0.223538
vt 0.559393 0.212672
vt 0.498839 0.223538
vt 0.439872 0.225003
vt 0.439872 0.225003
vt 0.844828 0.208765
vt 0.844828 0.208765
vt 0.905993 0.218532
vt 0.905993 0.218532
vt 0.96496 0.218776
vt 0.96496 0.218776
vt 0.438407 0.920033
vt 0.458185 0.879378
vt 0.403369 0.853008
vt 0.430838 0.832253
vt 0.388108 0.770112
vt 0.42217 0.770356
vt 0.404346 0.688559
vt 0.432791 0.707971
vt 0.436942 0.620192
vt 0.458185 0.659503
vt 0.112562 0.885238
vt 0.204492 0.874007
vt 0.108656 0.763153
vt 0.200586 0.751922
vt 0.108534 0.592723
vt 0.200464 0.581491
vt 0.110243 0.401293
vt 0.202173 0.390062
vt 0.112562 0.21487
vt 0.204492 0.203638
vt 0.11183 0.119887
vt 0.20376 0.108656
vt 0.211329 0.108656
vt 0.2073 0.230741
vt 0.304114 0.12001
vt 0.300207 0.242095
vt 0.2073 0.401171
vt 0.300085 0.412525
vt 0.20901 0.592601
vt 0.301794 0.603954
vt 0.211329 0.779024
vt 0.304114 0.790378
vt 0.210475 0.874007
vt 0.303381 0.88536
vt 0.21023 0.108411
vt 0.30216 0.119643
vt 0.206324 0.230496
vt 0.298254 0.241728
vt 0.206202 0.400927
vt 0.298132 0.412159
vt 0.207911 0.592356
vt 0.299841 0.603588
vt 0.21023 0.77878
vt 0.30216 0.790012
vt 0.209498 0.873884
vt 0.301306 0.885116
vt 0.114272 0.88536
vt 0.110243 0.763275
vt 0.207056 0.874007
vt 0.203149 0.751922
vt 0.110243 0.592845
vt 0.203027 0.581491
vt 0.11183 0.401415
vt 0.204737 0.390062
vt 0.114272 0.214992
vt 0.207056 0.203638
vt 0.113417 0.12001
vt 0.206324 0.108656
vt 0 0.99951
vt 0.038701 0.996214
vt 0 0.646928
vt 0.038701 0.652666
vt 0.038701 0.341472
vt 0 0.335245
vt 0 0.000122
vt 0.038701 0.003907
vt 0 0.000244
vt 0 0.351849
vt 0.036748 0.005982
vt 0.036748 0.349651
vt 0.036748 0.66109
vt 0 0.664265
vt 0 0.999998
vt 0.036748 0.999998
vt 0.386277 0.556463
vt 0.37651 0.556463
vt 0.386277 0.546819
vt 0.37651 0.546819
vt 0.386277 0.546819
vt 0.386277 0.556341
vt 0.37651 0.546819
vt 0.37651 0.556341
vt 0.37651 0.57209
vt 0.37651 0.560981
vt 0.386277 0.57209
vt 0.386277 0.560981
vt 0.386277 0.519228
vt 0.37651 0.519228
vt 0.446587 0.573799
vt 0.443657 0.562568
vt 0.45672 0.573799
vt 0.459528 0.562568
vt 0.456354 0.518861
vt 0.446221 0.518861
vt 0.37651 0.57209
vt 0.37651 0.560981
vt 0.386277 0.57209
vt 0.386277 0.560981
vt 0.386277 0.519228
vt 0.37651 0.519228
vt 0.448784 0.485044
vt 0.456598 0.479062
vt 0.450372 0.507507
vt 0.456598 0.512147
vt 0.410328 0.508606
vt 0.410328 0.483457
vt 0.416676 0.504333
vt 0.418263 0.488706
vt 0.448784 0.485044
vt 0.438529 0.480282
vt 0.456598 0.479062
vt 0.43914 0.472469
vt 0.43914 0.472469
vt 0.438529 0.480282
vt 0.410328 0.483457
vt 0.418263 0.488706
vt 0.450372 0.507507
vt 0.438407 0.510804
vt 0.448784 0.485044
vt 0.438529 0.480282
vt 0.418263 0.488706
vt 0.416676 0.504333
vt 0.456598 0.512147
vt 0.439384 0.520815
vt 0.450372 0.507507
vt 0.438407 0.510804
vt 0.438407 0.510804
vt 0.439384 0.520815
vt 0.416676 0.504333
vt 0.410328 0.508606
vt 0.42217 0.55451
vt 0.432059 0.57502
vt 0.418141 0.554754
vt 0.410328 0.573067
vt 0.410572 0.524966
vt 0.432059 0.520815
vt 0.420217 0.542424
vt 0.424001 0.542912
vt 0.432059 0.520815
vt 0.432059 0.57502
vt 0.424001 0.542912
vt 0.42217 0.55451
vt 0.424001 0.542912
vt 0.42217 0.55451
vt 0.420217 0.542424
vt 0.418141 0.554754
vt 0.420217 0.542424
vt 0.418141 0.554754
vt 0.410572 0.524966
vt 0.410328 0.573067
vt 0.446465 0.573799
vt 0.443657 0.562568
vt 0.456598 0.573799
vt 0.459528 0.562568
vt 0.446587 0.518861
vt 0.45672 0.518861
vt 0.386277 0.556463
vt 0.386277 0.546819
vt 0.37651 0.556463
vt 0.37651 0.546819
vt 0.386277 0.546819
vt 0.37651 0.546819
vt 0.386277 0.556341
vt 0.37651 0.556341
vt 0.37651 0.57209
vt 0.386277 0.57209
vt 0.37651 0.560981
vt 0.386277 0.560981
vt 0.386277 0.519228
vt 0.37651 0.519228
vt 0.446587 0.573799
vt 0.443657 0.562568
vt 0.45672 0.573799
vt 0.459528 0.562568
vt 0.456354 0.518861
vt 0.446221 0.518861
vt 0.37651 0.57209
vt 0.37651 0.560981
vt 0.386277 0.57209
vt 0.386277 0.560981
vt 0.386277 0.519228
vt 0.37651 0.519228
vt 0.402514 0.485044
vt 0.410328 0.479062
vt 0.403979 0.507507
vt 0.410328 0.512147
vt 0.364057 0.508606
vt 0.364057 0.483457
vt 0.370406 0.504333
vt 0.371993 0.488706
vt 0.402514 0.485044
vt 0.392259 0.480282
vt 0.410328 0.479062
vt 0.39287 0.472469
vt 0.39287 0.472469
vt 0.392259 0.480282
vt 0.364057 0.483457
vt 0.371993 0.488706
vt 0.403979 0.507507
vt 0.392137 0.510804
vt 0.402514 0.485044
vt 0.392259 0.480282
vt 0.371993 0.488706
vt 0.370406 0.504333
vt 0.410328 0.512147
vt 0.393114 0.520815
vt 0.403979 0.507507
vt 0.392137 0.510804
vt 0.392137 0.510804
vt 0.393114 0.520815
vt 0.370406 0.504333
vt 0.364057 0.508606
vt 0.400317 0.55451
vt 0.410328 0.57502
vt 0.39641 0.554754
vt 0.388597 0.573067
vt 0.388841 0.524966
vt 0.410328 0.520815
vt 0.398363 0.542424
vt 0.40227 0.542912
vt 0.410328 0.520815
vt 0.410328 0.57502
vt 0.40227 0.542912
vt 0.400317 0.55451
vt 0.40227 0.542912
vt 0.400317 0.55451
vt 0.398363 0.542424
vt 0.39641 0.554754
vt 0.398363 0.542424
vt 0.39641 0.554754
vt 0.388841 0.524966
vt 0.388597 0.573067
vt 0.446465 0.573799
vt 0.443657 0.562568
vt 0.456598 0.573799
vt 0.459528 0.562568
vt 0.446587 0.518861
vt 0.45672 0.518861
vt 0.905993 0.218532
vt 0.96496 0.218776
vt 0.844828 0.208765
vt 0.844828 0.208765
vt 0.96496 0.218776
vt 0.844828 0.208765
vt 0.96496 0.218776
vt 0.559393 0.212672
vt 0.498839 0.223538
vt 0.439872 0.225003
vt 0.439872 0.225003
vt 0.559393 0.212672
vt 0.439872 0.225003
vt 0.559393 0.212672
vn -0.613685 0.299284 -0.730629
vn -0.163455 0.351407 -0.921843
vn -0.640598 0.272839 -0.71777
vn -0.651848 0.271671 -0.708017
vn -0.654223 0.229875 -0.72052
vn -0.938891 0.214768 -0.268996
vn -0.963591 0.137895 -0.22908
vn -0.6538 0.141085 -0.743398
vn -0.955009 0.06701 -0.288908
vn -0.944194 0.014647 -0.329063
vn -0.65015 0.085596 -0.754969
vn -0.194457 0.140577 -0.970785
vn -0.14906 -0.0355 -0.988191
vn -0.632305 -0.091961 -0.769242
vn -0.16833 -0.524065 -0.834878
vn -0.10578 0.325583 -0.939578
vn -0.172111 0.222572 -0.959604
vn -0.663099 0.268427 -0.698747
vn -0.685205 0.28526 -0.670164
vn -0.922864 -0.206997 -0.324768
vn -0.689716 -0.609897 -0.390279
vn -0.411233 -0.646756 -0.642335
vn -0.58336 -0.806837 0.093304
vn -0.044362 -0.958752 -0.280761
vn 0.19206 -0.981339 -0.00931
vn 0.650193 -0.693205 -0.310992
vn 0.716833 -0.693416 0.072969
vn 0.439874 -0.824626 0.355672
vn 0.706778 -0.57629 0.41031
vn 0.610946 -0.469397 0.637504
vn 0.125374 -0.806127 0.578308
vn -0.238635 -0.865213 0.440976
vn 0.356705 -0.633648 -0.686478
vn -0.238635 -0.865213 0.440976
vn -0.543967 -0.387926 0.744052
vn 0.101943 -0.539467 0.835813
vn 0.467998 -0.323809 0.822268
vn 0.431298 -0.649013 0.626709
vn -0.58336 -0.806837 0.093304
vn -0.880804 -0.267861 0.39043
vn -0.689716 -0.609897 -0.390279
vn -0.922864 -0.206997 -0.324768
vn -0.987636 -0.071112 0.139705
vn -0.944194 0.014647 -0.329063
vn -0.979496 0.0232 0.200121
vn -0.955009 0.06701 -0.288908
vn -0.900819 -0.007896 0.434123
vn -0.963591 0.137895 -0.22908
vn -0.873651 0.041809 0.484754
vn -0.938891 0.214768 -0.268996
vn -0.969082 0.102071 0.224637
vn -0.552712 0.665547 0.501555
vn -0.56991 0.60045 0.560948
vn -0.720429 -0.021785 0.693187
vn -0.468264 -0.035161 0.882889
vn -0.300902 -0.036188 0.952968
vn 0.030095 -0.010907 0.999488
vn 0.313081 0.048961 0.948464
vn 0.634483 0.087931 0.767919
vn 0.583037 0.064617 0.809872
vn 0.633789 0.083353 0.769001
vn 0.606023 0.070679 0.792301
vn -0.218255 -0.198355 0.955521
vn -0.162492 -0.24496 0.95582
vn -0.183819 -0.251398 0.950268
vn 0.663005 0.081852 0.744127
vn 0.684542 0.084522 0.724056
vn 0.854173 0.159935 0.494782
vn 0.962386 0.167257 0.214097
vn 0.967325 0.207165 -0.146167
vn 0.919374 0.228629 -0.320126
vn 0.7713 0.279336 -0.571898
vn 0.996711 0.036207 -0.072497
vn 0.999501 -0.017105 -0.026559
vn 0.998589 -0.01954 -0.049371
vn 0.913924 -0.377124 0.150067
vn 0.880946 -0.108516 -0.460606
vn 0.716833 -0.693416 0.072969
vn 0.650193 -0.693205 -0.310992
vn 0.356705 -0.633648 -0.686478
vn 0.5588 0.030173 -0.828753
vn -0.14906 -0.0355 -0.988191
vn -0.194457 0.140577 -0.970785
vn 0.280094 0.154002 -0.947539
vn -0.172111 0.222572 -0.959604
vn 0.363411 0.261547 -0.894162
vn -0.10578 0.325583 -0.939578
vn 0.566843 0.297979 -0.768048
vn -0.163455 0.351407 -0.921843
vn 0.574906 0.321194 -0.752541
vn 0.32974 0.360377 -0.872582
vn -0.16833 -0.524065 -0.834878
vn 0.48894 0.805498 -0.33483
vn 0.415718 0.854487 -0.311497
vn -0.552712 0.665547 0.501555
vn -0.56991 0.60045 0.560948
vn -0.142605 0.970364 0.195083
vn -0.071453 0.987351 0.141534
vn -0.092765 0.988485 0.119546
vn -0.006006 0.996815 0.079521
vn 0.48894 0.805498 -0.33483
vn 0.415718 0.854487 -0.311497
vn 0.328954 -0.235415 0.914532
vn 0.477078 -0.220576 0.85073
vn 0.654692 -0.217247 0.724004
vn 0.577238 -0.199209 0.791904
vn 0.499069 -0.195794 0.844153
vn 0.799581 -0.258789 0.54194
vn 0.888364 -0.12572 0.441592
vn 0.80266 -0.156733 0.575475
vn 0.787649 -0.135529 0.601033
vn 0.727425 -0.166092 0.665783
vn 0.480843 0.470376 0.739957
vn 0.480843 0.470376 0.739957
vn 0.480843 0.470376 0.739957
vn 0.537885 0.481783 0.691784
vn 0.537885 0.481783 0.691784
vn 0.537885 0.481783 0.691784
vn -0.173375 0.17711 0.9688
vn -0.334329 0.474419 0.814341
vn -0.214607 0.151067 0.964947
vn -0.337091 0.65204 0.679127
vn 0.044274 0.972053 0.23055
vn 0.049971 0.97292 0.225676
vn 0.66447 0.734903 -0.135636
vn 0.476023 0.872269 -0.112024
vn 0.930715 0.359383 -0.067924
vn 0.944204 0.328961 -0.016243
vn -0.880804 -0.267861 0.39043
vn -0.543967 -0.387926 0.744052
vn -0.756648 -0.155074 0.635166
vn -0.75667 -0.147722 0.63689
vn -0.781702 -0.126169 0.610756
vn -0.727303 -0.140331 0.671816
vn -0.753461 -0.177822 0.63299
vn -0.650617 -0.06717 0.75643
vn -0.843753 -0.023752 0.536206
vn 0.5588 0.030173 -0.828753
vn 0.880946 -0.108516 -0.460606
vn 0.753784 0.141106 -0.641793
vn 0.753806 0.148467 -0.640105
vn 0.741862 0.18077 -0.645727
vn 0.764636 0.182132 -0.61819
vn 0.753267 0.185136 -0.63112
vn 0.789202 0.228889 -0.569887
vn 0.706044 0.246862 -0.663747
vn 0.176051 0.671545 -0.719746
vn -0.756848 -0.02773 0.653003
vn -0.563918 0.809392 -0.163954
vn -0.754593 -0.005412 0.65617
vn 0.19804 0.632881 0.748493
vn 0.853072 0.519027 0.053661
vn -0.792711 0.590899 -0.149825
vn -0.426538 0.832878 -0.352674
vn 0.641522 0.601029 -0.476668
vn 0.615485 0.652927 -0.441434
vn 0.447494 0.656176 0.607603
vn 0.162841 0.372046 0.913819
vn 0.174937 -0.173056 -0.969252
vn 0.213541 -0.154109 -0.964702
vn 0.334329 -0.474419 -0.814341
vn 0.335483 -0.653907 -0.678128
vn -0.044274 -0.972053 -0.23055
vn -0.049971 -0.97292 -0.225676
vn -0.662965 -0.736578 0.133906
vn -0.479104 -0.870158 0.11526
vn -0.931946 -0.355804 0.069851
vn -0.944338 -0.328566 0.016454
vn -0.611831 0.67346 -0.414867
vn -0.611831 0.67346 -0.414867
vn -0.658224 0.536505 -0.528113
vn -0.665025 0.514414 -0.541405
vn -0.68782 0.26651 -0.675186
vn -0.684688 0.256017 -0.682391
vn -0.66037 0.049235 -0.749324
vn -0.655686 0.02781 -0.754521
vn -0.543226 -0.320778 -0.775891
vn -0.523045 -0.359648 -0.772707
vn -0.402877 -0.565537 -0.719623
vn -0.402877 -0.565537 -0.719623
vn -0.464634 0.702324 -0.539311
vn -0.533899 0.560149 -0.633391
vn -0.464634 0.702324 -0.539311
vn -0.546391 0.538421 -0.641529
vn -0.61655 0.281944 -0.735101
vn -0.619008 0.268896 -0.737918
vn -0.637939 0.054075 -0.768186
vn -0.638799 0.031404 -0.768732
vn -0.600072 -0.331925 -0.727832
vn -0.591148 -0.373003 -0.715132
vn -0.510812 -0.586702 -0.628372
vn -0.510812 -0.586702 -0.628372
vn 0.614951 -0.672135 0.412395
vn 0.614951 -0.672135 0.412395
vn 0.657 -0.537057 0.529076
vn 0.663815 -0.514979 0.542352
vn 0.683241 -0.269908 0.678477
vn 0.686332 -0.254697 0.681233
vn 0.660564 -0.049224 0.749154
vn 0.655804 -0.027797 0.754419
vn 0.544579 0.321175 0.774778
vn 0.525734 0.360462 0.7705
vn 0.405538 0.566394 0.717452
vn 0.405538 0.566394 0.717452
vn 0.461514 -0.702223 0.542114
vn 0.53791 -0.560409 0.629757
vn 0.461514 -0.702223 0.542114
vn 0.544816 -0.538314 0.642957
vn 0.615881 -0.281709 0.735752
vn 0.619956 -0.269258 0.736991
vn 0.637691 -0.054168 0.768385
vn 0.638634 -0.031456 0.768867
vn 0.601563 0.332065 0.726536
vn 0.588459 0.372761 0.717472
vn 0.508151 0.586516 0.6307
vn 0.508151 0.586516 0.6307
vn 0.973988 0.215835 -0.069016
vn 0.973035 0.21288 -0.088794
vn 0.894071 0.261694 -0.363529
vn 0.890902 0.246713 -0.381348
vn 0.763714 0.640157 0.083306
vn 0.707903 0.690214 0.149929
vn 0.256782 0.91174 0.320614
vn 0.252581 0.913477 0.319003
vn -0.29675 -0.036711 0.954249
vn -0.542328 -0.017455 0.839985
vn -0.309269 -0.035638 0.950307
vn -0.556096 -0.038155 0.830242
vn -0.175001 0.464307 0.868213
vn -0.118358 0.531617 0.838675
vn 0.069114 0.87494 0.479274
vn 0.064936 0.87621 0.477534
vn 0.762332 0.153574 -0.6287
vn 0.762332 0.153574 -0.6287
vn 0.762332 0.153574 -0.6287
vn 0.762332 0.153574 -0.6287
vn -0.762332 -0.153574 0.6287
vn -0.762332 -0.153574 0.6287
vn -0.762332 -0.153574 0.6287
vn -0.762332 -0.153574 0.6287
vn 0.799199 -0.343396 0.493315
vn 0.695458 -0.380764 0.609391
vn 0.799199 -0.343396 0.493315
vn 0.695458 -0.380764 0.609391
vn 0.578302 -0.400835 0.710562
vn 0.578302 -0.400835 0.710562
vn 0.144695 0.906675 0.396237
vn 0.144695 0.906675 0.396237
vn 0.144695 0.906675 0.396237
vn 0.144695 0.906675 0.396237
vn 0.144695 0.906675 0.396237
vn 0.144695 0.906675 0.396237
vn -0.424928 0.415931 -0.804014
vn -0.560093 0.404367 -0.723037
vn -0.424928 0.415931 -0.804014
vn -0.560093 0.404367 -0.723037
vn -0.680161 0.382147 -0.625575
vn -0.680161 0.382147 -0.625575
vn 0.767787 0.122609 -0.628865
vn 0.767787 0.122609 -0.628865
vn 0.767787 0.122609 -0.628865
vn 0.767787 0.122609 -0.628865
vn -0.767787 -0.122609 0.628865
vn -0.767787 -0.122609 0.628865
vn -0.767787 -0.122609 0.628865
vn -0.767787 -0.122609 0.628865
vn 0.751841 -0.366093 0.548371
vn 0.751841 -0.366093 0.548371
vn 0.751841 -0.366093 0.548371
vn 0.751841 -0.366093 0.548371
vn 0.391729 -0.414491 0.821429
vn 0.391729 -0.414491 0.821429
vn 0.391729 -0.414491 0.821429
vn 0.391729 -0.414491 0.821429
vn 0.170286 0.909256 0.379811
vn 0.170286 0.909256 0.379811
vn 0.170286 0.909256 0.379811
vn 0.170286 0.909256 0.379811
vn 0.170286 0.909256 0.379811
vn 0.170286 0.909256 0.379811
vn -0.466767 0.416801 -0.780003
vn -0.466767 0.416801 -0.780003
vn -0.466767 0.416801 -0.780003
vn -0.466767 0.416801 -0.780003
vn -0.799735 0.350801 -0.487199
vn -0.799735 0.350801 -0.487199
vn -0.799735 0.350801 -0.487199
vn -0.799735 0.350801 -0.487199
vn 0.784346 0.359262 -0.5057
vn 0.784346 0.359262 -0.5057
vn 0.784346 0.359262 -0.5057
vn 0.784346 0.359262 -0.5057
vn -0.693458 0.126062 0.709383
vn -0.693458 0.126062 0.709383
vn -0.693458 0.126062 0.709383
vn -0.693458 0.126062 0.709383
vn 0.617319 -0.396087 0.67973
vn 0.61669 -0.400071 0.677965
vn 0.617319 -0.396087 0.67973
vn 0.61669 -0.400071 0.677965
vn 0.170286 0.909256 0.379811
vn 0.170286 0.909256 0.379811
vn 0.170286 0.909256 0.379811
vn 0.170286 0.909256 0.379811
vn -0.6182 0.399984 -0.67664
vn -0.620336 0.395905 -0.677084
vn -0.6182 0.399984 -0.67664
vn -0.620336 0.395905 -0.677084
vn -0.143279 -0.906378 -0.39743
vn -0.143279 -0.906378 -0.39743
vn -0.143279 -0.906378 -0.39743
vn -0.143279 -0.906378 -0.39743
vn -0.143279 -0.906378 -0.39743
vn -0.143279 -0.906378 -0.39743
vn -0.759175 -0.176327 0.626548
vn -0.759175 -0.176327 0.626548
vn -0.759175 -0.176327 0.626548
vn -0.759175 -0.176327 0.626548
vn 0.759175 0.176327 -0.626548
vn 0.759175 0.176327 -0.626548
vn 0.759175 0.176327 -0.626548
vn 0.759175 0.176327 -0.626548
vn -0.801695 0.355859 -0.480261
vn -0.801695 0.355859 -0.480261
vn -0.704475 0.389559 -0.593261
vn -0.704475 0.389559 -0.593261
vn -0.583992 0.418841 -0.695361
vn -0.583992 0.418841 -0.695361
vn 0.141486 0.894075 0.424984
vn 0.141486 0.894075 0.424984
vn 0.141486 0.894075 0.424984
vn 0.141486 0.894075 0.424984
vn 0.141486 0.894075 0.424984
vn 0.141486 0.894075 0.424984
vn 0.429099 -0.440818 0.788387
vn 0.56692 -0.424085 0.706225
vn 0.429099 -0.440818 0.788387
vn 0.56692 -0.424085 0.706225
vn 0.685323 -0.397862 0.609949
vn 0.685323 -0.397862 0.609949
vn -0.772493 -0.194434 0.604524
vn -0.772493 -0.194434 0.604524
vn -0.772493 -0.194434 0.604524
vn -0.772493 -0.194434 0.604524
vn 0.772493 0.194434 -0.604524
vn 0.772493 0.194434 -0.604524
vn 0.772493 0.194434 -0.604524
vn 0.772493 0.194434 -0.604524
vn -0.755545 0.369704 -0.540806
vn -0.755545 0.369704 -0.540806
vn -0.755545 0.369704 -0.540806
vn -0.755545 0.369704 -0.540806
vn -0.395686 0.449178 -0.801044
vn -0.395686 0.449178 -0.801044
vn -0.395686 0.449178 -0.801044
vn -0.395686 0.449178 -0.801044
vn 0.114511 0.889566 0.442221
vn 0.114511 0.889566 0.442221
vn 0.114511 0.889566 0.442221
vn 0.114511 0.889566 0.442221
vn 0.114511 0.889566 0.442221
vn 0.114511 0.889566 0.442221
vn 0.472869 -0.439557 0.763665
vn 0.472869 -0.439557 0.763665
vn 0.472869 -0.439557 0.763665
vn 0.472869 -0.439557 0.763665
vn 0.807776 -0.342126 0.48005
vn 0.807776 -0.342126 0.48005
vn 0.807776 -0.342126 0.48005
vn 0.807776 -0.342126 0.48005
vn -0.711758 0.045102 0.700976
vn -0.711758 0.045102 0.700976
vn -0.711758 0.045102 0.700976
vn -0.711758 0.045102 0.700976
vn 0.776504 0.424249 -0.465891
vn 0.776504 0.424249 -0.465891
vn 0.776504 0.424249 -0.465891
vn 0.776504 0.424249 -0.465891
vn -0.620363 0.41152 -0.667683
vn -0.620363 0.41152 -0.667683
vn -0.620363 0.41152 -0.667683
vn -0.620363 0.41152 -0.667683
vn 0.114511 0.889566 0.442221
vn 0.114511 0.889566 0.442221
vn 0.114511 0.889566 0.442221
vn 0.114511 0.889566 0.442221
vn 0.628795 -0.410438 0.660422
vn 0.628795 -0.410438 0.660422
vn 0.628795 -0.410438 0.660422
vn 0.628795 -0.410438 0.660422
vn -0.138636 -0.893387 -0.427363
vn -0.138636 -0.893387 -0.427363
vn -0.138636 -0.893387 -0.427363
vn -0.138636 -0.893387 -0.427363
vn -0.138636 -0.893387 -0.427363
vn -0.138636 -0.893387 -0.427363
vn -0.694581 0.297313 0.655105
vn -0.694581 0.297313 0.655105
vn -0.694581 0.297313 0.655105
vn -0.792711 0.590899 -0.149825
vn 0.162841 0.372046 0.913819
vn -0.426538 0.832878 -0.352674
vn 0.447494 0.656176 0.607603
vn 0.682527 0.519218 -0.514364
vn 0.682527 0.519218 -0.514364
vn 0.682527 0.519218 -0.514364
vn 0.19804 0.632881 0.748493
vn -0.563918 0.809392 -0.163954
vn 0.853072 0.519027 0.053661
vn 0.176051 0.671545 -0.719746
f 1/1/1 2/2/2 3/3/3
f 3/3/3 2/2/2 4/4/4
f 4/4/4 2/2/2 5/5/5
f 4/4/4 5/5/5 6/6/6
f 6/6/6 5/5/5 7/7/7
f 7/7/7 5/5/5 8/8/8
f 7/7/7 8/8/8 9/9/9
f 9/9/9 8/8/8 10/10/10
f 10/10/10 8/8/8 11/11/11
f 11/11/11 8/8/8 12/12/12
f 11/11/11 12/12/12 13/13/13
f 11/11/11 13/13/13 14/14/14
f 14/14/14 13/13/13 15/15/15
f 2/2/2 16/16/16 5/5/5
f 5/5/5 16/16/16 8/8/8
f 8/8/8 16/16/16 17/17/17
f 8/8/8 17/17/17 12/12/12
f 18/18/18 4/4/4 6/6/6
f 18/18/18 6/6/6 19/19/19
f 20/20/20 10/10/10 11/11/11
f 20/20/20 11/11/11 14/14/14
f 20/20/20 14/14/14 21/21/21
f 21/21/21 14/14/14 22/22/22
f 21/21/21 22/22/22 23/23/23
f 23/23/23 22/22/22 24/24/24
f 23/23/23 24/24/24 25/25/25
f 25/25/25 24/24/24 26/26/26
f 25/25/25 26/26/26 27/27/27
f 25/25/25 27/27/27 28/28/28
f 28/28/28 27/27/27 29/29/29
f 28/28/28 29/29/29 30/30/30
f 28/28/28 30/30/30 31/31/31
f 28/28/28 31/31/31 32/32/32
f 28/28/28 32/32/32 25/25/25
f 25/25/25 32/32/32 23/23/23
f 14/14/14 15/15/15 22/22/22
f 22/22/22 15/15/15 33/33/33
f 22/22/22 33/33/33 24/24/24
f 24/24/24 33/33/33 26/26/26
f 34/34/34 31/31/31 35/35/35
f 35/35/35 31/31/31 36/36/36
f 36/36/36 31/31/31 37/37/37
f 37/37/37 31/31/31 38/38/38
f 37/37/37 38/38/38 30/30/30
f 30/30/30 38/38/38 31/31/31
f 34/34/34 35/35/35 39/39/39
f 39/39/39 35/35/35 40/40/40
f 39/39/39 40/40/40 41/41/41
f 41/41/41 40/40/40 42/42/42
f 42/42/42 40/40/40 43/43/43
f 42/42/42 43/43/43 44/44/44
f 44/44/44 43/43/43 45/45/45
f 44/44/44 45/45/45 46/46/46
f 46/46/46 45/45/45 47/47/47
f 46/46/46 47/47/47 48/48/48
f 48/48/48 47/47/47 49/49/49
f 48/48/48 49/49/49 50/50/50
f 50/50/50 49/49/49 51/51/51
f 52/52/52 49/49/49 53/53/53
f 53/53/53 49/49/49 54/54/54
f 54/54/54 49/49/49 47/47/47
f 54/54/54 47/47/47 55/55/55
f 54/54/54 55/55/55 56/56/56
f 56/56/56 55/55/55 57/57/57
f 56/56/56 57/57/57 58/58/58
f 58/58/58 57/57/57 59/59/59
f 58/58/58 59/59/59 60/60/60
f 60/60/60 59/59/59 61/61/61
f 60/60/60 61/61/61 62/62/62
f 57/57/57 55/55/55 63/63/63
f 57/57/57 63/63/63 64/64/64
f 64/64/64 63/63/63 65/65/65
f 64/64/64 65/65/65 36/36/36
f 36/36/36 65/65/65 35/35/35
f 66/66/66 61/61/61 67/67/67
f 67/67/67 61/61/61 59/59/59
f 67/67/67 59/59/59 68/68/68
f 68/68/68 59/59/59 69/69/69
f 68/68/68 69/69/69 70/70/70
f 70/70/70 69/69/69 71/71/71
f 70/70/70 71/71/71 72/72/72
f 73/73/73 71/71/71 69/69/69
f 73/73/73 69/69/69 74/74/74
f 73/73/73 74/74/74 75/75/75
f 75/75/75 74/74/74 76/76/76
f 75/75/75 76/76/76 77/77/77
f 77/77/77 76/76/76 78/78/78
f 77/77/77 78/78/78 79/79/79
f 77/77/77 79/79/79 80/80/80
f 77/77/77 80/80/80 81/81/81
f 81/81/81 80/80/80 82/82/82
f 81/81/81 82/82/82 83/83/83
f 81/81/81 83/83/83 84/84/84
f 84/84/84 83/83/83 85/85/85
f 84/84/84 85/85/85 86/86/86
f 86/86/86 85/85/85 87/87/87
f 86/86/86 87/87/87 88/88/88
f 88/88/88 87/87/87 89/89/89
f 88/88/88 89/89/89 90/90/90
f 90/90/90 89/89/89 91/91/91
f 92/92/92 82/82/82 80/80/80
f 72/72/72 71/71/71 88/88/88
f 72/72/72 88/88/88 90/90/90
f 72/72/72 90/90/90 93/93/93
f 93/93/93 90/90/90 94/94/94
f 95/95/95 96/96/96 97/97/97
f 97/97/97 96/96/96 98/98/98
f 97/97/97 98/98/98 99/99/99
f 99/99/99 98/98/98 100/100/100
f 100/100/100 98/98/98 101/101/101
f 100/100/100 101/101/101 102/102/102
f 103/103/103 36/36/36 37/37/37
f 103/103/103 37/37/37 104/104/104
f 104/104/104 37/37/37 105/105/105
f 104/104/104 105/105/105 106/106/106
f 104/104/104 106/106/106 107/107/107
f 104/104/104 107/107/107 103/103/103
f 105/105/105 37/37/37 30/30/30
f 105/105/105 30/30/30 108/108/108
f 108/108/108 30/30/30 29/29/29
f 108/108/108 29/29/29 78/78/78
f 108/108/108 78/78/78 76/76/76
f 108/108/108 76/76/76 109/109/109
f 108/108/108 109/109/109 110/110/110
f 110/110/110 109/109/109 111/111/111
f 110/110/110 111/111/111 112/112/112
f 110/110/110 112/112/112 105/105/105
f 110/110/110 105/105/105 108/108/108
f 114/114/114 113/113/113 115/115/115
f 116/116/116 117/117/117 118/118/118
f 120/120/120 119/119/119 121/121/121
f 120/120/120 121/121/121 122/122/122
f 120/120/120 122/122/122 123/123/123
f 123/123/123 122/122/122 124/124/124
f 123/123/123 124/124/124 125/125/125
f 125/125/125 124/124/124 126/126/126
f 125/125/125 126/126/126 127/127/127
f 127/127/127 126/126/126 128/128/128
f 129/129/129 130/130/130 131/131/131
f 131/131/131 130/130/130 132/132/132
f 131/131/131 132/132/132 133/133/133
f 133/133/133 132/132/132 134/134/134
f 133/133/133 134/134/134 135/135/135
f 135/135/135 134/134/134 136/136/136
f 133/133/133 135/135/135 137/137/137
f 139/139/139 138/138/138 140/140/140
f 139/139/139 140/140/140 141/141/141
f 141/141/141 140/140/140 142/142/142
f 141/141/141 142/142/142 143/143/143
f 143/143/143 142/142/142 144/144/144
f 143/143/143 144/144/144 145/145/145
f 144/144/144 142/142/142 146/146/146
f 147/147/147 148/148/148 149/149/149
f 149/149/149 148/148/148 150/150/150
f 150/150/150 148/148/148 151/151/151
f 151/151/151 148/148/148 152/152/152
f 153/153/153 154/154/154 155/155/155
f 155/155/155 154/154/154 156/156/156
f 155/155/155 156/156/156 157/157/157
f 155/155/155 157/157/157 158/158/158
f 160/160/160 159/159/159 161/161/161
f 160/160/160 161/161/161 162/162/162
f 162/162/162 161/161/161 163/163/163
f 162/162/162 163/163/163 164/164/164
f 164/164/164 163/163/163 165/165/165
f 164/164/164 165/165/165 166/166/166
f 166/166/166 165/165/165 167/167/167
f 166/166/166 167/167/167 168/168/168
f 170/170/170 169/169/169 171/171/171
f 170/170/170 171/171/171 172/172/172
f 172/172/172 171/171/171 173/173/173
f 172/172/172 173/173/173 174/174/174
f 174/174/174 173/173/173 175/175/175
f 174/174/174 175/175/175 176/176/176
f 176/176/176 175/175/175 177/177/177
f 176/176/176 177/177/177 178/178/178
f 178/178/178 177/177/177 179/179/179
f 178/178/178 179/179/179 180/180/180
f 182/182/182 181/181/181 183/183/183
f 182/182/182 183/183/183 184/184/184
f 182/182/182 184/184/184 185/185/185
f 185/185/185 184/184/184 186/186/186
f 185/185/185 186/186/186 187/187/187
f 187/187/187 186/186/186 188/188/188
f 187/187/187 188/188/188 189/189/189
f 189/189/189 188/188/188 190/190/190
f 189/189/189 190/190/190 191/191/191
f 191/191/191 190/190/190 192/192/192
f 193/193/193 194/194/194 195/195/195
f 195/195/195 194/194/194 196/196/196
f 195/195/195 196/196/196 197/197/197
f 197/197/197 196/196/196 198/198/198
f 197/197/197 198/198/198 199/199/199
f 199/199/199 198/198/198 200/200/200
f 199/199/199 200/200/200 201/201/201
f 201/201/201 200/200/200 202/202/202
f 201/201/201 202/202/202 203/203/203
f 203/203/203 202/202/202 204/204/204
f 205/205/205 206/206/206 207/207/207
f 207/207/207 206/206/206 208/208/208
f 208/208/208 206/206/206 209/209/209
f 208/208/208 209/209/209 210/210/210
f 210/210/210 209/209/209 211/211/211
f 210/210/210 211/211/211 212/212/212
f 212/212/212 211/211/211 213/213/213
f 212/212/212 213/213/213 214/214/214
f 214/214/214 213/213/213 215/215/215
f 214/214/214 215/215/215 216/216/216
f 218/218/218 217/217/217 219/219/219
f 218/218/218 219/219/219 220/220/220
f 220/220/220 219/219/219 221/221/221
f 221/221/221 219/219/219 222/222/222
f 221/221/221 222/222/222 223/223/223
f 221/221/221 223/223/223 224/224/224
f 226/226/226 225/225/225 227/227/227
f 226/226/226 227/227/227 228/228/228
f 226/226/226 228/228/228 229/229/229
f 226/226/226 229/229/229 230/230/230
f 230/230/230 229/229/229 231/231/231
f 231/231/231 229/229/229 232/232/232
f 233/233/233 234/234/234 235/235/235
f 235/235/235 234/234/234 236/236/236
f 237/237/237 238/238/238 239/239/239
f 239/239/239 238/238/238 240/240/240
f 241/241/241 242/242/242 243/243/243
f 243/243/243 242/242/242 244/244/244
f 244/244/244 242/242/242 245/245/245
f 245/245/245 242/242/242 246/246/246
f 247/247/247 248/248/248 249/249/249
f 249/249/249 248/248/248 250/250/250
f 250/250/250 248/248/248 251/251/251
f 251/251/251 248/248/248 252/252/252
f 253/253/253 254/254/254 255/255/255
f 255/255/255 254/254/254 256/256/256
f 256/256/256 254/254/254 257/257/257
f 257/257/257 254/254/254 258/258/258
f 259/259/259 260/260/260 261/261/261
f 261/261/261 260/260/260 262/262/262
f 263/263/263 264/264/264 265/265/265
f 265/265/265 264/264/264 266/266/266
f 267/267/267 268/268/268 269/269/269
f 269/269/269 268/268/268 270/270/270
f 271/271/271 272/272/272 273/273/273
f 273/273/273 272/272/272 274/274/274
f 275/275/275 276/276/276 277/277/277
f 277/277/277 276/276/276 278/278/278
f 278/278/278 276/276/276 279/279/279
f 279/279/279 276/276/276 280/280/280
f 281/281/281 282/282/282 283/283/283
f 283/283/283 282/282/282 284/284/284
f 285/285/285 286/286/286 287/287/287
f 287/287/287 286/286/286 288/288/288
f 289/289/289 290/290/290 291/291/291
f 291/291/291 290/290/290 292/292/292
f 293/293/293 294/294/294 295/295/295
f 295/295/295 294/294/294 296/296/296
f 297/297/297 298/298/298 299/299/299
f 299/299/299 298/298/298 300/300/300
f 301/301/301 302/302/302 303/303/303
f 303/303/303 302/302/302 304/304/304
f 305/305/305 306/306/306 307/307/307
f 307/307/307 306/306/306 308/308/308
f 309/309/309 310/310/310 311/311/311
f 311/311/311 310/310/310 312/312/312
f 312/312/312 310/310/310 313/313/313
f 312/312/312 313/313/313 314/314/314
f 316/316/316 315/315/315 317/317/317
f 316/316/316 317/317/317 318/318/318
f 320/320/320 319/319/319 321/321/321
f 320/320/320 321/321/321 322/322/322
f 324/324/324 323/323/323 325/325/325
f 324/324/324 325/325/325 326/326/326
f 326/326/326 325/325/325 327/327/327
f 327/327/327 325/325/325 328/328/328
f 329/329/329 330/330/330 331/331/331
f 331/331/331 330/330/330 332/332/332
f 332/332/332 330/330/330 333/333/333
f 333/333/333 330/330/330 334/334/334
f 335/335/335 336/336/336 337/337/337
f 337/337/337 336/336/336 338/338/338
f 338/338/338 336/336/336 339/339/339
f 339/339/339 336/336/336 340/340/340
f 341/341/341 342/342/342 343/343/343
f 343/343/343 342/342/342 344/344/344
f 345/345/345 346/346/346 347/347/347
f 347/347/347 346/346/346 348/348/348
f 349/349/349 350/350/350 351/351/351
f 351/351/351 350/350/350 352/352/352
f 353/353/353 354/354/354 355/355/355
f 355/355/355 354/354/354 356/356/356
f 357/357/357 358/358/358 359/359/359
f 359/359/359 358/358/358 360/360/360
f 360/360/360 358/358/358 361/361/361
f 361/361/361 358/358/358 362/362/362
f 363/363/363 364/364/364 365/365/365
f 365/365/365 364/364/364 366/366/366
f 367/367/367 368/368/368 369/369/369
f 369/369/369 368/368/368 370/370/370
f 371/371/371 372/372/372 373/373/373
f 373/373/373 372/372/372 374/374/374
f 375/375/375 376/376/376 377/377/377
f 377/377/377 376/376/376 378/378/378
f 379/379/379 380/380/380 381/381/381
f 381/381/381 380/380/380 382/382/382
f 383/383/383 384/384/384 385/385/385
f 385/385/385 384/384/384 386/386/386
f 387/387/387 388/388/388 389/389/389
f 389/389/389 388/388/388 390/390/390
f 391/391/391 392/392/392 393/393/393
f 393/393/393 392/392/392 394/394/394
f 394/394/394 392/392/392 395/395/395
f 394/394/394 395/395/395 396/396/396
f 398/398/398 397/397/397 399/399/399
f 400/400/400 401/401/401 402/402/402
f 402/402/402 401/401/401 403/403/403
f 404/404/404 405/405/405 406/406/406
f 408/408/408 407/407/407 409/409/409
f 408/408/408 409/409/409 410/410/410
